<?xml version="1.0" encoding="utf-8"?>
<!-- Generator: Adobe Illustrator 19.2.1, SVG Export Plug-In . SVG Version: 6.00 Build 0)  -->
<svg version="1.1" id="layer" xmlns="http://www.w3.org/2000/svg" xmlns:xlink="http://www.w3.org/1999/xlink" x="0px" y="0px"
	 viewBox="0 0 652 652" style="enable-background:new 0 0 652 652;" xml:space="preserve" fill="#676767">
<path d="M305.6,279.9L262,339.2l-43.6-59.2v79.3h10.9v-46.1l32.7,44.4l32.7-44.4v46.1h10.9V279.9z M343.8,359.3h-10.9v-76.4h35.5
	c13.6,0,24.5,11,24.5,24.5s-11,24.5-24.5,24.5h-24.5V359.3z M343.8,321.1h24.5c7.5,0,13.6-6.1,13.6-13.6s-6.1-13.6-13.6-13.6h-24.5
	V321.1z M468.5,359.3h12.4l-41.7-76.9l-41.7,76.9H410l8.9-16.4h40.8L468.5,359.3z M424.8,332l14.5-26.7l14.5,26.7H424.8z
	 M545.6,337.9c0,12.9-11.9,22.7-27.6,22.7c-10.3-0.2-20-4.9-26.6-12.8l7.7-7.5c4.5,5.9,11.5,9.5,18.9,9.7c9.8,0,16.7-4.9,16.7-12
	c0-6.1-4.1-10.1-12.6-12.5l-9.2-2.1c-19.6-4.8-19.6-16.6-19.6-20.5c0-12.2,9.8-20.4,24.5-20.4c9.5,0,18.6,4,25,11.2l-7.7,7.5
	c-4.5-4.8-10.7-7.7-17.3-8c-8.6,0-13.6,3.5-13.6,9.7c0,1.8,0.7,8,9.7,9.9l8.4,1.9C537.5,318.3,545.6,326.3,545.6,337.9z M622,337.9
	c0,12.9-11.9,22.7-27.6,22.7c-10.3-0.2-20-4.9-26.6-12.8l7.7-7.5c4.5,5.9,11.5,9.5,18.9,9.7c9.8,0,16.7-4.9,16.7-12
	c0-6.1-4.1-10.1-12.6-12.5l-9.2-2.1c-19.6-4.8-19.6-16.6-19.6-20.5c0-12.2,9.8-20.4,24.5-20.4c9.5,0,18.6,4,25,11.2l-7.7,7.5
	c-4.5-4.8-10.7-7.7-17.3-8c-8.6,0-13.6,3.5-13.6,9.7c0,1.8,0.7,8,9.7,9.9l8.4,1.9C613.9,318.3,622,326.3,622,337.9z M84.1,342.3
	L84.1,342.3c-11.7,11.7-30.7,11.7-42.4,0c-11.7-11.7-11.7-30.7,0-42.4s30.7-11.7,42.4,0c0,0,0,0,0,0l0,0l1.9,1.9l7.7-7.7l-1.9-1.9
	l0,0c-16-16-41.9-16-57.9,0c-16,16-16,41.9,0,57.9c16,16,41.9,16,57.9,0l0,0l0,0l1.9-1.9l-7.7-7.7L84.1,342.3z M155.6,280.2
	c-22.6,0-40.9,18.3-40.9,40.9s18.3,40.9,40.9,40.9s40.9-18.3,40.9-40.9S178.2,280.2,155.6,280.2z M155.6,351.1
	c-16.6,0-30-13.4-30-30c0-16.6,13.4-30,30-30s30,13.4,30,30C185.6,337.7,172.2,351.1,155.6,351.1z M173.1,311.3l-7.7-7.7l-27.3,27.3
	l7.7,7.7L173.1,311.3z"/>
</svg>
