<?xml version="1.0" encoding="iso-8859-1"?>
<!-- Uploaded to: SVG Repo, www.svgrepo.com, Generator: SVG Repo Mixer Tools -->
<!DOCTYPE svg PUBLIC "-//W3C//DTD SVG 1.1//EN" "http://www.w3.org/Graphics/SVG/1.1/DTD/svg11.dtd">
<svg fill="#000000" version="1.1" id="Capa_1" xmlns="http://www.w3.org/2000/svg" xmlns:xlink="http://www.w3.org/1999/xlink" 
	 width="800px" height="800px" viewBox="0 0 320.192 320.192"
	 xml:space="preserve">
<g>
	<g>
		<path d="M275.142,37.217c-24.11-38.422-86.632-53.391-117.118-14.241c-0.751,0.968-1.237,1.983-1.527,3.009l-65.606-9.882
			l1.55,24.904c1.669-1.192,3.787-1.764,5.961-1.408l198.239,31.113v225.872c0,2.679-1.313,5.036-3.317,6.508l25.229,8.21V50.382
			l-42.678-6.426C276.692,41.979,276.66,39.629,275.142,37.217z M174.768,28.732c23.898-22.112,64.22-12.733,83.468,12.572
			L174.768,28.732z"/>
		<path d="M82.435,74.115c-0.604,3.681,1.891,7.148,5.569,7.754l162.553,26.621v185.108c0,3.728,3.027,6.75,6.75,6.75
			c3.729,0,6.75-3.022,6.75-6.75V97.021L90.184,68.546C86.506,67.914,83.036,70.437,82.435,74.115z"/>
		<path d="M280.441,293.34c0.169,0.011,0.312,0.101,0.475,0.101c3.127,0,5.648-2.168,6.407-5.058
			c0.147-0.554,0.343-1.097,0.343-1.692V79.314L113.793,50.846c-2.555-0.438-4.946,0.702-6.41,2.635
			c-0.644,0.854-1.16,1.809-1.339,2.932c-0.042,0.271,0.042,0.52,0.026,0.788c-0.146,3.37,2.133,6.41,5.542,6.967l162.554,26.617
			V286.69C274.166,290.25,276.945,293.087,280.441,293.34z"/>
		<path d="M176.502,316.87c27.786-28.931,60.486-177.805,61.863-184.128l1.434-6.578L60.916,86.545l1.68,9.888
			c7.57,44.597-56.004,145.443-56.642,146.451l-4.314,6.803l171.682,70.506L176.502,316.87z M21.566,243.279
			c13.664-22.607,55.124-94.872,55.102-139.417l147.053,32.569c-9.936,44.067-34.609,140.729-54.111,167.635L21.566,243.279z"/>
	</g>
</g>
</svg>